<svg width="50" height="50" viewBox="0 0 50 50" xmlns="http://www.w3.org/2000/svg" xmlns:xlink="http://www.w3.org/1999/xlink">
    <defs>
        <path id="a" d="M0 0h2.95v8.511H0z"/>
        <path id="c" d="M0 0h6.672v8.415H0z"/>
        <path id="e" d="M0 0h6.59v8.817H0z"/>
    </defs>
    <g fill="none" fill-rule="evenodd">
        <rect fill="#F7F7F7" width="50" height="50" rx="10"/>
        <g transform="translate(19.282 19.286)">
            <mask id="b" fill="#fff">
                <use xlink:href="#a"/>
            </mask>
            <path d="M.96 8.511V3.388C.96 2.206 0 2.05 0 2.05V0s2.787.165 2.95 3.453V8.51H.96z" fill="#000" mask="url(#b)"/>
        </g>
        <path d="M25.567 25.036c0 .372.132.688.396.949a1.3 1.3 0 0 0 .95.392c.377 0 .699-.13.967-.392.269-.261.403-.577.403-.949 0-.37-.134-.687-.403-.948a1.336 1.336 0 0 0-.966-.392 1.3 1.3 0 0 0-.951.392c-.264.26-.396.577-.396.948m-2.022.012c0-.411.085-.8.254-1.168a3.16 3.16 0 0 1 .747-1.004c.32-.288.683-.508 1.09-.662.405-.153.832-.229 1.28-.229.455 0 .889.076 1.3.23.41.153.772.373 1.089.66.32.292.563.623.73.994.167.371.25.763.25 1.18 0 .415-.083.808-.25 1.179-.167.37-.41.701-.73.992-.317.288-.68.508-1.09.662-.41.153-.844.23-1.3.23-.447 0-.874-.077-1.28-.23a3.429 3.429 0 0 1-1.09-.662 3.154 3.154 0 0 1-.746-1.004 2.757 2.757 0 0 1-.254-1.168" fill="#000"/>
        <g transform="translate(12.143 19.457)">
            <mask id="d" fill="#fff">
                <use xlink:href="#c"/>
            </mask>
            <path d="M4.241 6.54c-.268.26-.59.391-.966.391a1.3 1.3 0 0 1-.95-.391 1.287 1.287 0 0 1-.397-.949c0-.372.133-.687.396-.949.263-.26.58-.392.95-.392.377 0 .699.131.967.392.269.262.403.577.403.949 0 .371-.134.687-.403.949m1.671-3.087c-.44-.495-1.176-.925-1.882-.903-.827.027-1.527.176-2.055.614H1.95V0H0v8.278h1.95v-.402h.025c.42.311.987.539 1.765.539.86 0 1.649-.238 2.163-.803.515-.564.77-1.098.77-2.03 0-.86-.321-1.634-.76-2.129" fill="#000" mask="url(#d)"/>
        </g>
        <g transform="translate(31.267 21.898)">
            <mask id="f" fill="#fff">
                <use xlink:href="#e"/>
            </mask>
            <path d="M4.28 4.1c-.27.26-.59.391-.967.391a1.3 1.3 0 0 1-.95-.392 1.285 1.285 0 0 1-.397-.948c0-.372.132-.687.396-.949a1.3 1.3 0 0 1 .95-.392c.377 0 .699.131.967.392.269.262.403.577.403.949 0 .371-.134.687-.403.948zM4.652.144v.453h-.026C4.155.18 3.675 0 2.91 0 2.055 0 1.309.276.786.871.262 1.465 0 2.266 0 3.276c0 .9.235 1.62.706 2.155.47.536 1.163.824 1.965.824.862 0 1.512-.218 1.956-.815h.026v.385c.001 1-1.09 1.51-1.883 1.432v1.502c.95.133 2.079.081 2.87-.651.668-.616.95-1.503.95-2.956V.145H4.653z" fill="#000" mask="url(#f)"/>
        </g>
    </g>
</svg>
