<svg width="16" height="16" viewBox="0 0 16 16" xmlns="http://www.w3.org/2000/svg">
    <g fill="none" fill-rule="evenodd">
        <path d="M3.25.75h9.5c.966 0 1.75.784 1.75 1.75v11.576a1.25 1.25 0 0 1-1.934 1.047L1.84 8.115a.75.75 0 0 1-.34-.628V2.5c0-.966.784-1.75 1.75-1.75zm0 1.5-.057.007A.25.25 0 0 0 3 2.5v4.58l10 6.533V2.5a.25.25 0 0 0-.25-.25h-9.5z" fill="#888" fill-rule="nonzero"/>
        <path d="M3.25 1.5h9.5a1 1 0 0 1 1 1v4.987L3.023 14.495a.5.5 0 0 1-.773-.419V2.5a1 1 0 0 1 1-1z" fill="#FFF"/>
        <path d="M12.75.75h-9.5A1.75 1.75 0 0 0 1.5 2.5v11.576a1.25 1.25 0 0 0 1.934 1.047L14.16 8.115a.75.75 0 0 0 .34-.628V2.5A1.75 1.75 0 0 0 12.75.75zm0 1.5.057.007A.25.25 0 0 1 13 2.5v4.58L3 13.613V2.5a.25.25 0 0 1 .25-.25h9.5z" fill="#888" fill-rule="nonzero"/>
    </g>
</svg>
