<svg width="16" height="16" viewBox="0 0 16 16" xmlns="http://www.w3.org/2000/svg">
    <g fill="none" fill-rule="evenodd">
        <path d="M0 0h16v16H0z"/>
        <g transform="translate(0 2)">
            <path d="M10 0c3.314 0 6 2.31 6 5.16 0 1.622-.872 3.07-2.235 4.016l.095 1.534a.45.45 0 0 1-.655.428l-1.852-.952a6.89 6.89 0 0 1-.779.109c1.142-1.064 1.843-2.49 1.843-4.064 0-2.735-2.116-5.025-4.99-5.733A6.776 6.776 0 0 1 10 0z" fill="#ADEDDC"/>
            <path d="M5.75 1.25c3.187 0 5.75 2.272 5.75 5.046 0 2.773-2.563 5.045-5.75 5.045-.445 0-.883-.044-1.308-.131l-.087-.01a.507.507 0 0 0-.253.059l-1.871.991.097-1.61a.494.494 0 0 0-.207-.431C.786 9.253 0 7.829 0 6.296 0 3.522 2.563 1.25 5.75 1.25z" fill="#00D4AC" fill-rule="nonzero"/>
            <circle fill="#FFF" cx="3.25" cy="6.25" r="1"/>
            <circle fill="#FFF" cx="5.75" cy="6.25" r="1"/>
            <circle fill="#FFF" cx="8.25" cy="6.25" r="1"/>
        </g>
    </g>
</svg>
