<svg width="50" height="50" viewBox="0 0 50 50" xmlns="http://www.w3.org/2000/svg">
    <g fill="none" fill-rule="evenodd">
        <rect fill="#F7F7F7" width="50" height="50" rx="10"/>
        <g fill="#000">
            <path d="M33.224 28.862a3.695 3.695 0 0 1-3.695 3.696h-8.344a3.695 3.695 0 0 1-3.695-3.696V20.52a3.695 3.695 0 0 1 3.695-3.695h8.344a3.695 3.695 0 0 1 3.695 3.695v8.343zM29.434 15H21.28a5.567 5.567 0 0 0-5.567 5.567v8.152a5.567 5.567 0 0 0 5.567 5.567h8.153A5.566 5.566 0 0 0 35 28.719v-8.152A5.566 5.566 0 0 0 29.434 15z"/>
            <path d="M25.357 27.935a3.244 3.244 0 1 1 0-6.488 3.244 3.244 0 0 1 0 6.488m0-8.248a5.004 5.004 0 1 0 0 10.008 5.004 5.004 0 0 0 0-10.008M30.528 18.33a1.166 1.166 0 1 0 0 2.332 1.166 1.166 0 0 0 0-2.331"/>
        </g>
    </g>
</svg>
