<svg width="40" height="40" viewBox="0 0 40 40" xmlns="http://www.w3.org/2000/svg">
    <g fill="none" fill-rule="evenodd">
        <circle fill="#FBE400" cx="20" cy="20" r="20"/>
        <path d="M10.4 10.4h19.2v19.2H10.4z"/>
        <path d="M19.999 12C15.579 12 12 15.062 12 18.841c0 2.431 1.484 4.562 3.711 5.778l-.754 3.048a.268.268 0 0 0 .058.263c.043.045.1.07.161.07.05 0 .097-.023.142-.059l3.24-2.37c.471.073.95.114 1.44.114 4.418 0 8.002-3.06 8.002-6.844C28 15.062 24.416 12 19.999 12" fill="#3B1E1E"/>
    </g>
</svg>
