<svg width="35" height="35" viewBox="0 0 35 35" xmlns="http://www.w3.org/2000/svg">
    <g fill="none" fill-rule="evenodd">
        <circle fill="#DDD" cx="17.5" cy="17.5" r="17.5"/>
        <path d="M21.02 9.625h-7.04c-.472 0-.855.365-.855.815v6.684c0 .45.383.815.856.815h3.245c-.023.795-.37 1.66-.872 2.428-.565.863-1.77 1.82-1.78 1.829-.095.086-.164.187-.166.327-.001.106.056.188.121.276l2.263 2.43s.11.11.2.13c.103.024.219.027.3-.032 3.918-2.886 4.484-6.504 4.582-8.463l.001-6.424c0-.45-.383-.815-.856-.815" fill="#FFF"/>
    </g>
</svg>
