<svg width="40" height="40" viewBox="0 0 40 40" xmlns="http://www.w3.org/2000/svg">
    <g fill="none" fill-rule="evenodd">
        <path d="M10.4 10.4h19.2v19.2H10.4z"/>
        <circle fill="#888" cx="20" cy="20" r="20"/>
        <path d="M10.4 10.4h19.2v19.2H10.4z"/>
        <path d="M25.927 13.883c1.361 1.481 1.326 3.884-.02 5.48l-.12.134-1.955 2.129c-1.497 1.628-3.905 1.716-5.342.152a.8.8 0 0 1 1.178-1.083c.756.823 2.008.808 2.886-.05l.1-.102 1.956-2.129c.914-.995.962-2.553.14-3.449-.786-.854-2.106-.805-2.986.153l-.522.568a.8.8 0 0 1-1.179-1.083l.523-.568c1.457-1.586 3.778-1.711 5.226-.272l.115.12z" fill="#FFF" fill-rule="nonzero"/>
        <path d="M21.278 18.457a.8.8 0 0 1-1.178 1.082c-.619-.673-1.775-.585-2.658.287l-.104.109-1.957 2.128c-.924 1.007-1.048 2.46-.363 3.206.643.7 1.869.577 2.762-.395l.659-.717a.8.8 0 0 1 1.178 1.082l-.659.717c-1.483 1.614-3.786 1.845-5.118.395-1.254-1.364-1.099-3.655.242-5.233l.121-.137 1.956-2.129c1.443-1.57 3.663-1.832 5.009-.51l.11.115z" fill="#FFF" fill-rule="nonzero"/>
    </g>
</svg>
