<svg width="14" height="14" viewBox="0 0 14 14" xmlns="http://www.w3.org/2000/svg">
    <g fill="none" fill-rule="evenodd">
        <path d="M8.488 1.044 7.5 2.577 10.616 5l2.298-3.856A.095.095 0 0 0 12.833 1H8.568a.095.095 0 0 0-.08.044zM5.512 1.044 6.5 2.577 3.384 5 1.086 1.144A.095.095 0 0 1 1.167 1h4.265c.032 0 .062.016.08.044z" fill="#EBA313"/>
        <path d="m7.28 2.203 4.672 3.395a.475.475 0 0 1 .172.53l-1.785 5.493a.475.475 0 0 1-.451.329H4.112a.475.475 0 0 1-.451-.329L1.876 6.13a.475.475 0 0 1 .172-.531l4.673-3.395a.475.475 0 0 1 .558 0z" fill="#FFC400"/>
        <path d="M7.28 3.203 11 5.907a.475.475 0 0 1 .173.53l-1.421 4.375a.475.475 0 0 1-.452.329H4.7a.475.475 0 0 1-.452-.329L2.827 6.438a.475.475 0 0 1 .172-.531l3.722-2.704a.475.475 0 0 1 .558 0z" fill="#FFE78D"/>
        <path d="m7 9-1.339.476a.095.095 0 0 1-.127-.092l.04-1.42-.867-1.127a.095.095 0 0 1 .048-.149l1.363-.402.804-1.172a.095.095 0 0 1 .156 0l.804 1.172 1.363.402a.095.095 0 0 1 .048.15l-.866 1.126.039 1.42a.095.095 0 0 1-.127.092L7 9z" fill="#FFC400"/>
    </g>
</svg>
