<svg width="16" height="16" viewBox="0 0 16 16" xmlns="http://www.w3.org/2000/svg">
    <g fill="none" fill-rule="evenodd">
        <path d="M10.875 7.25a1.875 1.875 0 1 0 0-3.75 1.875 1.875 0 0 0 0 3.75zM10.75 8c2.071 0 3.75 1.583 3.75 3.536 0 .987-1.916 1.475-3.812 1.464.2-.267.312-.57.312-.909a5.119 5.119 0 0 0-1.694-3.819A3.924 3.924 0 0 1 10.75 8z" fill="#ADEDDC"/>
        <path d="M6 7.5A2.25 2.25 0 1 0 6 3a2.25 2.25 0 0 0 0 4.5z" fill="#00D4AC"/>
        <path d="M6 8c2.21 0 4 1.837 4 4.103 0 1.863-8 1.863-8 0C2 9.837 3.79 8 6 8z" fill="#00D4AC" fill-rule="nonzero"/>
    </g>
</svg>
