<svg width="32" height="32" viewBox="0 0 32 32" xmlns="http://www.w3.org/2000/svg">
    <g fill="none" fill-rule="evenodd">
        <circle fill="#F7F7F7" cx="16" cy="16" r="15"/>
        <g fill="#DDD">
            <path d="M19.234 15.156a2.11 2.11 0 1 0 0-4.219 2.11 2.11 0 0 0 0 4.22zM19.094 16c2.33 0 4.218 1.78 4.218 3.977 0 1.11-2.155 1.66-4.287 1.648.225-.3.35-.642.35-1.022a5.759 5.759 0 0 0-1.906-4.298A4.43 4.43 0 0 1 19.094 16zM13.75 15.438a2.531 2.531 0 1 0 0-5.063 2.531 2.531 0 0 0 0 5.063z"/>
            <path d="M13.75 16c2.485 0 4.5 2.067 4.5 4.616 0 2.095-9 2.095-9 0 0-2.55 2.015-4.616 4.5-4.616z" fill-rule="nonzero"/>
        </g>
    </g>
</svg>
