<svg width="60" height="60" viewBox="0 0 60 60" xmlns="http://www.w3.org/2000/svg">
    <g transform="translate(4 9)" fill="none" fill-rule="evenodd">
        <path d="M51.565 23.189c-1.729-6.35-7.592-7.911-7.592-7.911-.104-.19-.208-.368-.312-.552a8.467 8.467 0 0 0 2.741-6.242c0-4.685-3.8-8.484-8.487-8.484a8.478 8.478 0 0 0-7.01 3.7c-1.865-.454-3.548-.515-4.905-.515-1.355 0-3.04.06-4.905.515a8.478 8.478 0 0 0-7.01-3.7A8.484 8.484 0 0 0 5.6 8.484a8.457 8.457 0 0 0 2.74 6.24c-.104.184-.208.364-.312.554 0 0-5.863 1.559-7.592 7.91C-1.56 30.51 2.696 42 26 42c23.302 0 27.559-11.488 25.565-18.811" fill="#DDD"/>
        <path fill="#FFF" d="M24.824 12.412h2.353V26.53h-2.353z"/>
        <circle fill="#FFF" cx="26" cy="31.235" r="1.765"/>
    </g>
</svg>
