<svg width="16" height="16" viewBox="0 0 16 16" xmlns="http://www.w3.org/2000/svg">
    <g fill="none" fill-rule="evenodd">
        <circle fill="#00D4AC" cx="8" cy="8" r="8"/>
        <path d="M5.5 11.75v-7.5h2.483c.385 0 .743.03 1.074.091.332.061.619.162.862.304s.434.331.573.568c.138.236.207.53.207.882a1.983 1.983 0 0 1-.274.983 1.63 1.63 0 0 1-.319.39 1.219 1.219 0 0 1-.43.248v.05a1.93 1.93 0 0 1 1.008.579c.267.29.4.689.4 1.196 0 .378-.074.706-.223.983a1.968 1.968 0 0 1-.613.689c-.26.182-.567.317-.922.405a4.777 4.777 0 0 1-1.15.132H5.5zM7 7.3h.872c.486 0 .836-.087 1.049-.263.212-.176.319-.415.319-.72 0-.33-.112-.567-.335-.709-.223-.142-.56-.213-1.013-.213H7v1.906zm0 3.295h1.044c.513 0 .905-.093 1.176-.28.27-.185.405-.474.405-.866 0-.365-.132-.628-.395-.79-.264-.162-.66-.243-1.186-.243H7v2.179z" fill="#FFF" fill-rule="nonzero"/>
    </g>
</svg>
