<svg width="24" height="24" viewBox="0 0 24 24" xmlns="http://www.w3.org/2000/svg">
    <defs>
        <linearGradient x1="50%" y1="0%" x2="50%" y2="100%" id="a">
            <stop stop-color="#FFA95F" offset="0%"/>
            <stop stop-color="#FF7031" offset="100%"/>
        </linearGradient>
    </defs>
    <path d="M18 1.608a4 4 0 0 1 1.464 5.464l-.536.927L20 8a4 4 0 1 1 0 8h-1.072l.536.928a4 4 0 1 1-6.928 4L12 20.001l-.536.927a4 4 0 1 1-6.928-4L5.07 16 4 16a4 4 0 1 1 0-8h1.071l-.535-.928a4 4 0 0 1 6.928-4l.536.927.536-.927A4 4 0 0 1 18 1.608z" fill="url(#a)" fill-rule="evenodd"/>
</svg>
