<svg width="14" height="14" viewBox="0 0 14 14" xmlns="http://www.w3.org/2000/svg">
    <g fill="#888" fill-rule="evenodd">
        <path d="M6.054 2.25a.5.5 0 0 1 .09.992l-.09.008H3.75a.5.5 0 0 0-.492.41l-.008.09v6.5a.5.5 0 0 0 .41.492l.09.008h6.5a.5.5 0 0 0 .492-.41l.008-.09V7.944a.5.5 0 0 1 .992-.09l.008.09v2.306a1.5 1.5 0 0 1-1.356 1.493l-.144.007h-6.5a1.5 1.5 0 0 1-1.493-1.356l-.007-.144v-6.5a1.5 1.5 0 0 1 1.356-1.493l.144-.007h2.304zM11.25 2.25a.5.5 0 0 1 .492.41l.008.09v2.5a.5.5 0 0 1-.992.09l-.008-.09v-2h-2a.5.5 0 0 1-.492-.41l-.008-.09a.5.5 0 0 1 .41-.492l.09-.008h2.5z" fill-rule="nonzero"/>
        <rect transform="rotate(45 8.975 4.975)" x="8.475" y="1.975" width="1" height="6" rx=".5"/>
    </g>
</svg>
