<svg width="16" height="16" viewBox="0 0 16 16" xmlns="http://www.w3.org/2000/svg">
    <g fill="none" fill-rule="evenodd">
        <path d="M10.718 9.304a.62.62 0 0 0-.792-.096l-1.027.672a.62.62 0 0 1-.787-.092c-.427-.435-.82-.914-1.173-1.431a10.68 10.68 0 0 1-.808-1.402.699.699 0 0 1 .146-.81l.955-.887a.7.7 0 0 0 .138-.825L6.32 2.362a.638.638 0 0 0-.705-.347l-2.11.472a.665.665 0 0 0-.502.707 13.064 13.064 0 0 0 2.237 6.443c1.474 2.16 3.762 4.07 5.32 4.285.17.023.327.112.492.064a.643.643 0 0 0 .386-.324l.985-1.899a.706.706 0 0 0-.116-.808l-1.588-1.651z" fill="#00D4AC"/>
        <path d="M9.197 4.461a.322.322 0 0 0-.387.245.328.328 0 0 0 .24.395c1.072.254 1.74 1.354 1.488 2.449a.328.328 0 0 0 .24.395c.173.04.346-.07.387-.246.333-1.448-.55-2.9-1.968-3.238z" fill="#ADEDDC"/>
        <path d="M9.953 3.073c-.162-.036-.325.058-.362.21-.038.151.064.304.227.34 1.665.37 2.708 1.936 2.324 3.491-.037.152.064.304.227.34.162.036.325-.058.362-.21.458-1.858-.788-3.73-2.778-4.171z" fill="#ADEDDC"/>
    </g>
</svg>
