<svg width="32" height="32" viewBox="0 0 32 32" xmlns="http://www.w3.org/2000/svg">
    <g fill="none" fill-rule="evenodd">
        <circle fill="#F7F7F7" cx="16" cy="16" r="15"/>
        <path d="M19.057 17.467a.698.698 0 0 0-.89-.108l-1.156.756a.697.697 0 0 1-.886-.103c-.48-.49-.921-1.028-1.319-1.61a12.015 12.015 0 0 1-.908-1.578.786.786 0 0 1 .164-.911l1.074-.998a.788.788 0 0 0 .156-.928l-1.184-2.33a.718.718 0 0 0-.793-.39l-2.374.53c-.351.08-.59.418-.564.796.187 2.607 1.05 5.1 2.516 7.249 1.659 2.43 4.233 4.578 5.985 4.82.192.027.368.127.554.072a.723.723 0 0 0 .435-.364l1.108-2.136a.794.794 0 0 0-.13-.91l-1.788-1.857z" fill="#00D4AC"/>
        <path d="M17.346 12.019a.362.362 0 0 0-.435.275c-.045.2.075.398.27.445 1.207.286 1.958 1.522 1.674 2.755a.37.37 0 0 0 .27.444.363.363 0 0 0 .435-.277c.375-1.629-.618-3.263-2.214-3.642z" fill="#ADEDDC"/>
        <path d="M18.197 10.457c-.182-.04-.365.065-.407.235-.042.171.072.343.255.384 1.873.416 3.046 2.178 2.615 3.928-.042.17.072.342.255.382.182.04.365-.065.407-.236.516-2.09-.886-4.196-3.125-4.693z" fill="#ADEDDC"/>
    </g>
</svg>
