<svg width="32" height="32" viewBox="0 0 32 32" xmlns="http://www.w3.org/2000/svg" xmlns:xlink="http://www.w3.org/1999/xlink">
    <defs>
        <path id="a" d="M0 0h18.002v17.998H0z"/>
    </defs>
    <g fill="none" fill-rule="evenodd">
        <circle fill="#F7F7F7" cx="16" cy="16" r="15"/>
        <g transform="translate(6.999 6.999)">
            <mask id="b" fill="#fff">
                <use xlink:href="#a"/>
            </mask>
            <g mask="url(#b)">
                <g transform="translate(1.125 3.938)">
                    <path d="M15.57.87a1 1 0 0 1 .182.576V8.68a1 1 0 0 1-1.575.818l-3.489-2.455V3.081L14.177.628A1 1 0 0 1 15.57.87zM9.563 3.872v2.38l-.528-.371a1 1 0 0 1 0-1.636l.528-.373z" fill="#ADEDDC"/>
                    <path d="M1.107 0h7.35c.611 0 1.107.515 1.107 1.15v7.825c0 .635-.496 1.15-1.107 1.15h-7.35C.496 10.125 0 9.61 0 8.975V1.15C0 .515.496 0 1.107 0z" fill="#00D4AC" fill-rule="nonzero"/>
                    <rect fill="#FFF" x="1.688" y="1.688" width="5.063" height="1.125" rx=".563"/>
                </g>
            </g>
        </g>
    </g>
</svg>
