<svg width="16" height="16" viewBox="0 0 16 16" xmlns="http://www.w3.org/2000/svg" xmlns:xlink="http://www.w3.org/1999/xlink">
    <defs>
        <path id="a" d="M0 0h16v15.998H0z"/>
    </defs>
    <g fill="none" fill-rule="evenodd">
        <mask id="b" fill="#fff">
            <use xlink:href="#a"/>
        </mask>
        <g mask="url(#b)">
            <g transform="translate(1 3.5)">
                <path d="M13.818.924a1 1 0 0 1 .182.575v6.002a1 1 0 0 1-1.575.818L9.499 6.261V2.739L12.425.681a1 1 0 0 1 1.393.243zM8.499 3.442v2.116l-.34-.24a1 1 0 0 1 0-1.636l.34-.24z" fill="#ADEDDC"/>
                <path d="M.984 0h6.532C8.06 0 8.5.458 8.5 1.022v6.956C8.5 8.542 8.06 9 7.516 9H.984C.44 9 0 8.542 0 7.978V1.022C0 .458.44 0 .984 0z" fill="#00D4AC" fill-rule="nonzero"/>
                <rect fill="#FFF" x="1.5" y="1.5" width="4.5" height="1" rx=".5"/>
            </g>
        </g>
    </g>
</svg>
