<svg width="70" height="30" viewBox="0 0 70 30" xmlns="http://www.w3.org/2000/svg">
    <g fill="#00D4AC" fill-rule="nonzero">
        <path d="M17.487 5.528c0 1.13-.922 2.047-2.06 2.047a2.053 2.053 0 0 1-2.06-2.047c0-1.13.923-2.046 2.06-2.046 1.138 0 2.06.917 2.06 2.046zM52.032 3.043h3.336v18.15h-3.336zM70 14.976c0-.409-.034-.805-.107-1.19-.55-3.115-3.229-5.48-6.45-5.48-3.623 0-6.56 2.986-6.56 6.67 0 .103 0 .206.008.305.004.111.015.213.027.312.261 3.138 2.688 5.038 3.873 5.495 4.374 1.678 7.505-.523 7.505-.523l-.984-2.409c-5.875 2.167-7.196-1.495-7.196-1.884h9.758c.085-.42.126-.854.126-1.296zm-9.924-1.19c.48-1.425 1.804-2.451 3.366-2.451 1.558 0 2.883 1.026 3.364 2.451h-6.73zM5.499 7.944v.817h5.738v2.77H5.499v9.661h-3.22v-9.66H0V8.76h2.28V7.594C2.28 3.794 5.337 1 9.172 1c1.223 0 2.344.375 3.34.94L10.73 4.615c-.487-.24-.98-.412-1.558-.412-2.263 0-3.673 1.679-3.673 3.742zM17.434 9.424v11.768H14.21v-9.38a.28.28 0 0 0-.282-.28h-1.072V8.76h3.895a.68.68 0 0 1 .68.663h.003zM33.803 13.645v7.549h-3.228v-6.898c0-1.623-1.44-2.938-3.213-2.938-1.722 0-3.128 1.235-3.216 2.787v7.047h-3.228v-9.379a.283.283 0 0 0-.284-.282h-1.073v-2.77h3.844c.41 0 .741.302.741.675v.01a6.351 6.351 0 0 1 3.663-1.138c1.044 0 2.025.246 2.88.672 1.816.91 3.06 2.655 3.114 4.665zM46.59 8.76a.626.626 0 0 0-.626.628 6.736 6.736 0 0 0-4.201-1.054l-.148.01a7.14 7.14 0 0 0-5.032 2.887c-.023.026-.041.056-.06.087a6.318 6.318 0 0 0-1.166 3.68l.001.034-.001.034c0 3.59 2.964 6.501 6.62 6.501a6.67 6.67 0 0 0 3.613-1.056v.943c.003.87-.42 3.559-4.035 3.559-.789 0-2.703-.35-3.751-1.606l-1.974 2.115C37.268 27.146 39.654 28 41.62 28c2.212 0 4.039-.73 5.402-2.089 1.193-1.192 1.816-3.014 1.816-5.32v-1.957h-.008v-6.087l.003.003v-.735c0-.157.124-.285.283-.285h.86V8.76H46.59zm-4.378 9.877c-2.023 0-3.664-1.63-3.664-3.64 0-2.01 1.641-3.64 3.664-3.64 2.024 0 3.665 1.63 3.665 3.64 0 2.01-1.641 3.64-3.665 3.64z"/>
    </g>
</svg>
