<svg width="16" height="16" viewBox="0 0 16 16" xmlns="http://www.w3.org/2000/svg">
    <path d="M11.566 2.25c.94.005 1.88.362 2.6 1.071a3.587 3.587 0 0 1 1.084 2.542 3.492 3.492 0 0 1-1.05 2.52l-3.884 3.822c-.14.137-.288.26-.444.366L8.84 13.585a1.245 1.245 0 0 1-1.652.09L1.799 8.382A3.492 3.492 0 0 1 .75 5.862a3.587 3.587 0 0 1 1.084-2.54 3.727 3.727 0 0 1 2.502-1.07 3.642 3.642 0 0 1 2.524.894l1.144 1.109.984-.968a3.632 3.632 0 0 1 2.578-1.037z" stroke="#F53B32" stroke-width="1.5" fill="#F53B32" fill-rule="evenodd"/>
</svg>
