<svg width="32" height="32" viewBox="0 0 32 32" xmlns="http://www.w3.org/2000/svg">
    <g fill="none" fill-rule="evenodd">
        <path d="M8 7h18v18H8z"/>
        <circle fill="#F7F7F7" cx="16" cy="16" r="15"/>
        <path d="M7 7h18v18H7z"/>
        <g transform="translate(7 9.25)">
            <path d="M11.25 0C14.978 0 18 2.599 18 5.804c0 1.826-.98 3.455-2.514 4.52l.112 1.824a.45.45 0 0 1-.655.428l-2.17-1.116a7.752 7.752 0 0 1-.877.122c1.285-1.197 2.073-2.802 2.073-4.572 0-3.077-2.381-5.655-5.615-6.45A7.65 7.65 0 0 1 11.25 0z" fill="#ADEDDC"/>
            <path d="M6.469 1.406c3.585 0 6.468 2.556 6.468 5.676 0 3.121-2.883 5.677-6.468 5.677-.5 0-.994-.05-1.472-.148l-.098-.011a.57.57 0 0 0-.284.066L2.51 13.78l.109-1.811a.556.556 0 0 0-.233-.485C.884 10.41 0 8.808 0 7.082c0-3.12 2.883-5.676 6.469-5.676z" fill="#00D4AC" fill-rule="nonzero"/>
            <circle fill="#FFF" cx="3.656" cy="7.031" r="1"/>
            <circle fill="#FFF" cx="6.469" cy="7.031" r="1"/>
            <circle fill="#FFF" cx="9.281" cy="7.031" r="1"/>
        </g>
    </g>
</svg>
