<svg width="24" height="24" viewBox="0 0 24 24" xmlns="http://www.w3.org/2000/svg">
    <g fill="#00BC99" fill-rule="evenodd">
        <path d="M18.92 18.08h2.5v2.5h-2.5z"/>
        <path d="m16.52 21.62-2.96-3.52c.84-.653 1.497-1.523 1.97-2.61.473-1.087.71-2.377.71-3.87 0-1.2-.16-2.273-.48-3.22-.32-.947-.773-1.743-1.36-2.39a5.973 5.973 0 0 0-2.09-1.49C11.503 4.173 10.607 4 9.62 4c-.973 0-1.867.17-2.68.51A5.787 5.787 0 0 0 4.84 6c-.587.653-1.04 1.453-1.36 2.4-.32.947-.48 2.02-.48 3.22 0 1.2.16 2.277.48 3.23.32.953.773 1.767 1.36 2.44a5.839 5.839 0 0 0 2.1 1.54c.813.353 1.707.53 2.68.53.227 0 .453-.013.68-.04.227-.027.453-.06.68-.1l1.88 2.4h3.66zm-6.9-4.82a3.03 3.03 0 0 1-1.49-.37 3.384 3.384 0 0 1-1.14-1.04c-.313-.447-.553-.99-.72-1.63a8.494 8.494 0 0 1-.25-2.14c0-1.613.317-2.863.95-3.75s1.517-1.33 2.65-1.33 2.017.443 2.65 1.33.95 2.137.95 3.75c0 .787-.083 1.5-.25 2.14-.167.64-.407 1.183-.72 1.63a3.384 3.384 0 0 1-1.14 1.04 3.03 3.03 0 0 1-1.49.37z" fill-rule="nonzero"/>
    </g>
</svg>
