<svg width="70" height="14" viewBox="0 0 70 14" xmlns="http://www.w3.org/2000/svg">
    <g fill="none" fill-rule="evenodd">
        <path fill="#FFAF00" d="m7 11.692-4.114 1.471.127-4.367-2.67-3.46 4.193-1.228L7 .5l2.464 3.608 4.193 1.229-2.67 3.459.127 4.367zM21 11.692l-4.114 1.471.127-4.367-2.67-3.46 4.193-1.228L21 .5l2.464 3.608 4.193 1.229-2.67 3.459.127 4.367zM35 11.692l-4.114 1.471.127-4.367-2.67-3.46 4.193-1.228L35 .5l2.464 3.608 4.193 1.229-2.67 3.459.127 4.367zM49 11.692l-4.114 1.471.127-4.367-2.67-3.46 4.193-1.228L49 .5l2.464 3.608 4.193 1.229-2.67 3.459.127 4.367zM63 11.692l-4.114 1.471.127-4.367-2.67-3.46 4.193-1.228L63 .5l2.464 3.608 4.193 1.229-2.67 3.459.127 4.367z"/>
    </g>
</svg>
