<svg width="32" height="32" viewBox="0 0 32 32" xmlns="http://www.w3.org/2000/svg">
    <defs>
        <linearGradient x1="50%" y1="0%" x2="50%" y2="100%" id="0seumst5va">
            <stop stop-color="#A5D2D6" offset="0%"/>
            <stop stop-color="#6BA6AC" offset="100%"/>
        </linearGradient>
        <linearGradient x1="50%" y1="0%" x2="50%" y2="100%" id="764aalsfcb">
            <stop stop-color="#CBE9EC" offset="0%"/>
            <stop stop-color="#9CCED5" offset="100%"/>
        </linearGradient>
    </defs>
    <g fill="none" fill-rule="evenodd">
        <path d="M14.318 0c2.063 0 3.802 1.429 4.333 3.378 1.648.109 2.999 1.333 3.35 2.946l.036.19h.054c.79 0 1.494.46 1.943 1.121.165-.037.336-.056.511-.056C25.901 7.579 27 8.71 27 10.105c0 1.396-1.099 2.527-2.455 2.527-.07 0-.138-.003-.206-.01-.72 1.458-3.174 2.536-4.703 2.536a3.187 3.187 0 0 1-1.636-.45c-.48.286-1.04.45-1.636.45-.858 0-1.64-.34-2.223-.896C13.486 15.308 12.344 16 11.045 16c-1.385 0-2.592-.788-3.22-1.952a3.165 3.165 0 0 1-1.28.268c-1.319 0-2.456-.804-2.974-1.961a2.376 2.376 0 0 1-1.116.277C1.099 12.632 0 11.5 0 10.105 0 8.71 1.099 7.58 2.455 7.58c.318 0 .622.062.9.176.278-1.13 1.235-2.084 2.372-2.084l.053.001c.297-1.786 1.809-3.146 3.63-3.146.292 0 .577.036.85.102C10.985 1.074 12.53 0 14.318 0z" fill="url(#0seumst5va)" transform="translate(1 2)"/>
        <path d="M20 3c1.815 0 3.348 1.279 3.837 3.03 1.396.178 2.52 1.152 2.829 2.415l.036.17.048-.001c.915 0 1.703.61 2.054 1.396l.047-.005L29 10a2 2 0 1 1-.308 3.976C27.952 15.154 26.027 16 24.8 16c-.49 0-.951-.135-1.352-.372-.429.237-.923.372-1.448.372a2.993 2.993 0 0 1-2.274-1.043C19.255 16.163 18.211 17 17 17c-.999 0-1.883-.57-2.429-1.445a3.001 3.001 0 0 1-4.403-1.562l-.019.002L10 14a2 2 0 1 1 0-4l.062.001C10.281 8.919 11.066 8 12 8c.313 0 .61.103.874.282l.128.094.003-.075C13.093 6.461 14.4 5 16 5a2.6 2.6 0 0 1 .566.062C17.263 3.827 18.54 3 20 3z" fill="url(#764aalsfcb)" transform="translate(1 2)"/>
        <path d="M6.5 24c.828 0 1.5-.746 1.5-1.667C8 21.72 7.5 20.61 6.5 19c-1 1.609-1.5 2.72-1.5 3.333C5 23.253 5.672 24 6.5 24z" fill="#6BA6AC"/>
        <path d="M9.5 30c.828 0 1.5-.746 1.5-1.667 0-.613-.5-1.724-1.5-3.333-1 1.609-1.5 2.72-1.5 3.333C8 29.253 8.672 30 9.5 30z" fill="#9CCED5"/>
        <path d="M12.5 24c.828 0 1.5-.746 1.5-1.667 0-.613-.5-1.724-1.5-3.333-1 1.609-1.5 2.72-1.5 3.333 0 .92.672 1.667 1.5 1.667z" fill="#6BA6AC"/>
        <path d="M16.5 30c.828 0 1.5-.746 1.5-1.667 0-.613-.5-1.724-1.5-3.333-1 1.609-1.5 2.72-1.5 3.333 0 .92.672 1.667 1.5 1.667z" fill="#9CCED5"/>
        <path d="M19.5 24c.828 0 1.5-.746 1.5-1.667 0-.613-.5-1.724-1.5-3.333-1 1.609-1.5 2.72-1.5 3.333 0 .92.672 1.667 1.5 1.667z" fill="#6BA6AC"/>
        <path d="M22.5 30c.828 0 1.5-.746 1.5-1.667 0-.613-.5-1.724-1.5-3.333-1 1.609-1.5 2.72-1.5 3.333 0 .92.672 1.667 1.5 1.667z" fill="#9CCED5"/>
        <path d="M26.5 24c.828 0 1.5-.746 1.5-1.667 0-.613-.5-1.724-1.5-3.333-1 1.609-1.5 2.72-1.5 3.333 0 .92.672 1.667 1.5 1.667z" fill="#6BA6AC"/>
    </g>
</svg>
