<svg width="16" height="16" viewBox="0 0 16 16" xmlns="http://www.w3.org/2000/svg" xmlns:xlink="http://www.w3.org/1999/xlink">
    <defs>
        <path id="a" d="M0 0h16v15.998H0z"/>
    </defs>
    <g fill="none" fill-rule="evenodd">
        <mask id="b" fill="#fff">
            <use xlink:href="#a"/>
        </mask>
        <path d="M14.873 4.29a1 1 0 0 1 .127.487v6.446a1 1 0 0 1-1.488.873L12 11.251V4.749l1.512-.845a1 1 0 0 1 1.361.385z" fill="#ADEDDC" mask="url(#b)"/>
        <path d="M2.484 3.5h7.532c.543 0 .984.458.984 1.022v6.956c0 .564-.44 1.022-.984 1.022H2.484c-.543 0-.984-.458-.984-1.022V4.522c0-.564.44-1.022.984-1.022z" fill="#00D4AC" fill-rule="nonzero" mask="url(#b)"/>
        <rect fill="#FFF" mask="url(#b)" x="3.75" y="5" width="5" height="1" rx=".5"/>
    </g>
</svg>
