<svg width="32" height="32" viewBox="0 0 32 32" xmlns="http://www.w3.org/2000/svg" xmlns:xlink="http://www.w3.org/1999/xlink">
    <defs>
        <path id="a" d="M0 0h18v17.998H0z"/>
    </defs>
    <g fill="none" fill-rule="evenodd">
        <circle fill="#F7F7F7" cx="16" cy="16" r="15"/>
        <g transform="translate(6.999 6.999)">
            <mask id="b" fill="#fff">
                <use xlink:href="#a"/>
            </mask>
            <path d="M16.748 4.673a1 1 0 0 1 .127.488v7.678a1 1 0 0 1-1.488.873L13.5 12.658V5.342l1.887-1.054a1 1 0 0 1 1.361.385z" fill="#DDD" mask="url(#b)"/>
            <path d="M2.794 3.938h8.474c.611 0 1.107.514 1.107 1.15v7.825c0 .635-.496 1.15-1.107 1.15H2.794c-.61 0-1.107-.515-1.107-1.15V5.087c0-.635.496-1.15 1.107-1.15z" fill="#DDD" fill-rule="nonzero" mask="url(#b)"/>
            <rect fill="#FFF" mask="url(#b)" x="4.219" y="5.625" width="5.625" height="1.125" rx=".563"/>
        </g>
    </g>
</svg>
