<svg width="50" height="50" viewBox="0 0 50 50" xmlns="http://www.w3.org/2000/svg" xmlns:xlink="http://www.w3.org/1999/xlink">
    <defs>
        <path id="a" d="M0 0h22.857v16.429H0z"/>
    </defs>
    <g fill="none" fill-rule="evenodd">
        <rect fill="#F7F7F7" width="50" height="50" rx="10"/>
        <g transform="translate(13.571 16.429)">
            <mask id="b" fill="#fff">
                <use xlink:href="#a"/>
            </mask>
            <path d="M22.38 2.565A2.902 2.902 0 0 0 20.357.49C18.576 0 11.428 0 11.428 0s-7.147 0-8.93.49a2.902 2.902 0 0 0-2.02 2.075C0 4.395 0 8.215 0 8.215s0 3.818.477 5.648a2.902 2.902 0 0 0 2.021 2.075c1.783.49 8.93.49 8.93.49s7.148 0 8.93-.49a2.903 2.903 0 0 0 2.021-2.075c.478-1.83.478-5.649.478-5.649s0-3.818-.478-5.649" fill="#231F20" mask="url(#b)"/>
        </g>
        <path fill="#FEFEFE" d="m22.714 28.163 5.938-3.52-5.938-3.52z"/>
    </g>
</svg>
